<svg width="20" height="20" viewBox="0 0 20 20" fill="none" xmlns="http://www.w3.org/2000/svg">
<path fill-rule="evenodd" clip-rule="evenodd" d="M6.62224 1.04297H13.3804C14.52 1.04295 15.4386 1.04294 16.1611 1.14007C16.9112 1.24092 17.5427 1.45666 18.0443 1.95826C18.5459 2.45986 18.7617 3.09142 18.8625 3.84151C18.9597 4.56398 18.9597 5.48259 18.9596 6.62225V10.047C18.9597 11.1867 18.9597 12.1053 18.8625 12.8278C18.7617 13.5779 18.5459 14.2094 18.0443 14.711C17.6294 15.1259 17.1237 15.3468 16.5314 15.4674C15.9562 15.5845 15.2624 15.614 14.441 15.6227L14.4363 15.6228L14.2493 15.6233C14.1687 15.8768 14.0375 16.1179 13.8559 16.3311C13.7466 16.4593 13.6806 16.6187 13.6672 16.7865C13.5871 17.7902 12.7902 18.5871 11.7865 18.6672C11.6187 18.6806 11.4593 18.7466 11.3311 18.8559C10.5648 19.5089 9.43777 19.5089 8.67147 18.8559C8.54329 18.7466 8.38393 18.6806 8.21606 18.6672C7.21244 18.5871 6.41548 17.7902 6.33539 16.7865C6.32199 16.6187 6.25598 16.4593 6.14675 16.3311C5.96532 16.1182 5.83429 15.8775 5.75367 15.6244C4.88674 15.6185 4.16106 15.595 3.56493 15.4855C2.93326 15.3695 2.3957 15.1485 1.95826 14.711C1.45666 14.2094 1.24092 13.5779 1.14007 12.8278C1.04294 12.1053 1.04295 11.1867 1.04297 10.047V6.62224C1.04295 5.48258 1.04294 4.56398 1.14007 3.84151C1.24092 3.09142 1.45666 2.45986 1.95826 1.95826C2.45986 1.45666 3.09142 1.24092 3.84151 1.14007C4.56398 1.04294 5.48258 1.04295 6.62224 1.04297ZM5.75492 14.3743C5.83564 14.1226 5.96625 13.8833 6.14675 13.6715C6.25598 13.5433 6.32199 13.3839 6.33539 13.2161C6.41548 12.2124 7.21244 11.4155 8.21606 11.3354C8.38393 11.322 8.54329 11.256 8.67147 11.1468C9.43777 10.4937 10.5648 10.4937 11.3311 11.1468C11.4593 11.256 11.6187 11.322 11.7865 11.3354C12.7902 11.4155 13.5871 12.2124 13.6672 13.2161C13.6806 13.3839 13.7466 13.5433 13.8559 13.6715C14.0361 13.883 14.1666 14.122 14.2474 14.3733L14.43 14.3728C15.2511 14.364 15.8365 14.3332 16.282 14.2425C16.7107 14.1552 16.9672 14.0204 17.1605 13.8271C17.3911 13.5965 17.5415 13.2727 17.6237 12.6612C17.7083 12.0317 17.7096 11.1975 17.7096 10.0013V6.66797C17.7096 5.47179 17.7083 4.63753 17.6237 4.00807C17.5415 3.39659 17.3911 3.07278 17.1605 2.84214C16.9298 2.61151 16.606 2.46114 15.9945 2.37893C15.3651 2.2943 14.5308 2.29297 13.3346 2.29297H6.66797C5.47179 2.29297 4.63753 2.2943 4.00807 2.37893C3.39659 2.46114 3.07278 2.61151 2.84214 2.84214C2.61151 3.07278 2.46114 3.39659 2.37893 4.00807C2.2943 4.63753 2.29297 5.47179 2.29297 6.66797V10.0013C2.29297 11.1975 2.2943 12.0317 2.37893 12.6612C2.46114 13.2727 2.61151 13.5965 2.84214 13.8271C3.04502 14.03 3.31842 14.1693 3.79076 14.2561C4.26591 14.3434 4.88735 14.3683 5.75492 14.3743ZM6.8763 5.0013C6.8763 4.65612 7.15613 4.3763 7.5013 4.3763H12.5013C12.8465 4.3763 13.1263 4.65612 13.1263 5.0013C13.1263 5.34648 12.8465 5.6263 12.5013 5.6263H7.5013C7.15613 5.6263 6.8763 5.34648 6.8763 5.0013ZM5.20964 7.91797C5.20964 7.57279 5.48946 7.29297 5.83464 7.29297H14.168C14.5131 7.29297 14.793 7.57279 14.793 7.91797C14.793 8.26315 14.5131 8.54297 14.168 8.54297H5.83464C5.48946 8.54297 5.20964 8.26315 5.20964 7.91797ZM10.5204 12.0981C10.2213 11.8433 9.78134 11.8433 9.48224 12.0981C9.15386 12.378 8.74557 12.5471 8.3155 12.5814C7.92376 12.6127 7.61269 12.9238 7.58143 13.3155C7.54711 13.7456 7.37799 14.1539 7.09815 14.4822C6.84325 14.7813 6.84325 15.2213 7.09815 15.5204C7.37799 15.8487 7.54711 16.257 7.58143 16.6871C7.61269 17.0788 7.92376 17.3899 8.3155 17.4212C8.74557 17.4555 9.15386 17.6246 9.48224 17.9045C9.78134 18.1594 10.2213 18.1594 10.5204 17.9045C10.8487 17.6246 11.257 17.4555 11.6871 17.4212C12.0788 17.3899 12.3899 17.0788 12.4212 16.6871C12.4555 16.257 12.6246 15.8487 12.9045 15.5204C13.1594 15.2213 13.1594 14.7813 12.9045 14.4822C12.6246 14.1539 12.4555 13.7456 12.4212 13.3155C12.3899 12.9238 12.0788 12.6127 11.6871 12.5814C11.257 12.5471 10.8487 12.378 10.5204 12.0981ZM10.8249 13.7111C11.0772 13.4755 11.4727 13.4892 11.7082 13.7415C11.9437 13.9939 11.9301 14.3894 11.6778 14.6249L9.89204 16.2915C9.65191 16.5157 9.27927 16.5157 9.03914 16.2915L8.32485 15.6249C8.07251 15.3894 8.05887 14.9939 8.29439 14.7415C8.52991 14.4892 8.92541 14.4755 9.17775 14.7111L9.46559 14.9797L10.8249 13.7111Z" fill="#474747"/>
</svg>
