<svg width="32" height="33" viewBox="0 0 32 33" fill="none" xmlns="http://www.w3.org/2000/svg">
<path fill-rule="evenodd" clip-rule="evenodd" d="M27.668 9.83203C27.668 10.3843 27.2203 10.832 26.668 10.832L5.33464 10.832C4.78235 10.832 4.33464 10.3843 4.33464 9.83203C4.33464 9.27975 4.78235 8.83203 5.33464 8.83203L26.668 8.83203C27.2203 8.83203 27.668 9.27975 27.668 9.83203Z" fill="#5E5E5E"/>
<path fill-rule="evenodd" clip-rule="evenodd" d="M27.668 16.5C27.668 17.0523 27.2203 17.5 26.668 17.5L5.33464 17.5C4.78235 17.5 4.33464 17.0523 4.33464 16.5C4.33464 15.9477 4.78235 15.5 5.33464 15.5L26.668 15.5C27.2203 15.5 27.668 15.9477 27.668 16.5Z" fill="#5E5E5E"/>
<path fill-rule="evenodd" clip-rule="evenodd" d="M27.668 23.168C27.668 23.7203 27.2203 24.168 26.668 24.168L5.33464 24.168C4.78235 24.168 4.33464 23.7203 4.33464 23.168C4.33464 22.6157 4.78235 22.168 5.33464 22.168L26.668 22.168C27.2203 22.168 27.668 22.6157 27.668 23.168Z" fill="#5E5E5E"/>
</svg>
